<svg id="visual" viewBox="0 0 900 600" width="900" height="600" xmlns="http://www.w3.org/2000/svg" xmlns:xlink="http://www.w3.org/1999/xlink" version="1.1"><rect x="0" y="0" width="900" height="600" fill="#0f081c"></rect><path d="M0 574L7.2 573.2C14.3 572.3 28.7 570.7 43 569.8C57.3 569 71.7 569 86 569.5C100.3 570 114.7 571 128.8 570.3C143 569.7 157 567.3 171.2 566.2C185.3 565 199.7 565 214 566.2C228.3 567.3 242.7 569.7 257 570.8C271.3 572 285.7 572 300 570.5C314.3 569 328.7 566 343 566C357.3 566 371.7 569 386 570.2C400.3 571.3 414.7 570.7 428.8 570.8C443 571 457 572 471.2 571.2C485.3 570.3 499.7 567.7 514 566.2C528.3 564.7 542.7 564.3 557 565.7C571.3 567 585.7 570 600 571.5C614.3 573 628.7 573 643 572C657.3 571 671.7 569 686 568.2C700.3 567.3 714.7 567.7 728.8 567.7C743 567.7 757 567.3 771.2 567.5C785.3 567.7 799.7 568.3 814 568.2C828.3 568 842.7 567 857 566.2C871.3 565.3 885.7 564.7 892.8 564.3L900 564L900 601L892.8 601C885.7 601 871.3 601 857 601C842.7 601 828.3 601 814 601C799.7 601 785.3 601 771.2 601C757 601 743 601 728.8 601C714.7 601 700.3 601 686 601C671.7 601 657.3 601 643 601C628.7 601 614.3 601 600 601C585.7 601 571.3 601 557 601C542.7 601 528.3 601 514 601C499.7 601 485.3 601 471.2 601C457 601 443 601 428.8 601C414.7 601 400.3 601 386 601C371.7 601 357.3 601 343 601C328.7 601 314.3 601 300 601C285.7 601 271.3 601 257 601C242.7 601 228.3 601 214 601C199.7 601 185.3 601 171.2 601C157 601 143 601 128.8 601C114.7 601 100.3 601 86 601C71.7 601 57.3 601 43 601C28.7 601 14.3 601 7.2 601L0 601Z" fill="#380774" stroke-linecap="round" stroke-linejoin="miter"></path></svg>