<svg id="visual" viewBox="0 0 900 600" width="900" height="600" xmlns="http://www.w3.org/2000/svg" xmlns:xlink="http://www.w3.org/1999/xlink" version="1.1"><rect x="0" y="0" width="900" height="600" fill="#0f081c"></rect><path d="M0 549L4.8 544.8C9.7 540.7 19.3 532.3 29 530.2C38.7 528 48.3 532 58 535.3C67.7 538.7 77.3 541.3 87 540.7C96.7 540 106.3 536 116 532C125.7 528 135.3 524 145 523.8C154.7 523.7 164.3 527.3 174 530.5C183.7 533.7 193.3 536.3 203 540.2C212.7 544 222.3 549 232 548.5C241.7 548 251.3 542 261 539.3C270.7 536.7 280.3 537.3 290 538C299.7 538.7 309.3 539.3 319 540.5C328.7 541.7 338.3 543.3 348 544.5C357.7 545.7 367.3 546.3 377 546C386.7 545.7 396.3 544.3 406 541.7C415.7 539 425.3 535 435.2 533.2C445 531.3 455 531.7 464.8 533.8C474.7 536 484.3 540 494 541.5C503.7 543 513.3 542 523 538.2C532.7 534.3 542.3 527.7 552 530.7C561.7 533.7 571.3 546.3 581 551.5C590.7 556.7 600.3 554.3 610 549.7C619.7 545 629.3 538 639 535C648.7 532 658.3 533 668 537.7C677.7 542.3 687.3 550.7 697 550.7C706.7 550.7 716.3 542.3 726 539.7C735.7 537 745.3 540 755 537.5C764.7 535 774.3 527 784 530.2C793.7 533.3 803.3 547.7 813 551.8C822.7 556 832.3 550 842 548C851.7 546 861.3 548 871 548.7C880.7 549.3 890.3 548.7 895.2 548.3L900 548L900 601L895.2 601C890.3 601 880.7 601 871 601C861.3 601 851.7 601 842 601C832.3 601 822.7 601 813 601C803.3 601 793.7 601 784 601C774.3 601 764.7 601 755 601C745.3 601 735.7 601 726 601C716.3 601 706.7 601 697 601C687.3 601 677.7 601 668 601C658.3 601 648.7 601 639 601C629.3 601 619.7 601 610 601C600.3 601 590.7 601 581 601C571.3 601 561.7 601 552 601C542.3 601 532.7 601 523 601C513.3 601 503.7 601 494 601C484.3 601 474.7 601 464.8 601C455 601 445 601 435.2 601C425.3 601 415.7 601 406 601C396.3 601 386.7 601 377 601C367.3 601 357.7 601 348 601C338.3 601 328.7 601 319 601C309.3 601 299.7 601 290 601C280.3 601 270.7 601 261 601C251.3 601 241.7 601 232 601C222.3 601 212.7 601 203 601C193.3 601 183.7 601 174 601C164.3 601 154.7 601 145 601C135.3 601 125.7 601 116 601C106.3 601 96.7 601 87 601C77.3 601 67.7 601 58 601C48.3 601 38.7 601 29 601C19.3 601 9.7 601 4.8 601L0 601Z" fill="#380774" stroke-linecap="round" stroke-linejoin="miter"></path></svg>